<?xml version="1.0" encoding="utf-8"?>
<svg version="1.1" id="Layer_1" xmlns="http://www.w3.org/2000/svg" xmlns:xlink="http://www.w3.org/1999/xlink" x="0px" y="0px"
	 viewBox="0 0 200 200" style="enable-background:new 0 0 200 200;" xml:space="preserve">
<style type="text/css">
	.st0{fill:#FFFFFF;}
</style>
<g>
	<circle cx="98.5" cy="99.5" r="35.5"/>
	<path d="M98.5,69c16.8,0,30.5,13.7,30.5,30.5S115.3,130,98.5,130S68,116.3,68,99.5S81.7,69,98.5,69 M98.5,59
		C76.1,59,58,77.1,58,99.5S76.1,140,98.5,140S139,121.9,139,99.5S120.9,59,98.5,59L98.5,59z"/>
</g>
<g>
	<path class="st0" d="M12,104c-0.6,0-1-0.4-1-1v-3c0-0.6,0.4-1,1-1h29c0.6,0,1,0.4,1,1v3c0,0.6-0.4,1-1,1H12z"/>
	<path d="M41,94H12c-3.3,0-6,2.7-6,6v3c0,3.3,2.7,6,6,6h29c3.3,0,6-2.7,6-6v-3C47,96.7,44.3,94,41,94L41,94z"/>
</g>
<g>
	<path class="st0" d="M156,103c-0.6,0-1-0.4-1-1v-3c0-0.6,0.4-1,1-1h29c0.6,0,1,0.4,1,1v3c0,0.6-0.4,1-1,1H156z"/>
	<path d="M185,93h-29c-3.3,0-6,2.7-6,6v3c0,3.3,2.7,6,6,6h29c3.3,0,6-2.7,6-6v-3C191,95.7,188.3,93,185,93L185,93z"/>
</g>
<g>
	<path class="st0" d="M97,187c-0.6,0-1-0.4-1-1v-29c0-0.6,0.4-1,1-1h3c0.6,0,1,0.4,1,1v29c0,0.6-0.4,1-1,1H97z"/>
	<path d="M100,151h-3c-3.3,0-6,2.7-6,6v29c0,3.3,2.7,6,6,6h3c3.3,0,6-2.7,6-6v-29C106,153.7,103.3,151,100,151L100,151z"/>
</g>
<g>
	<path class="st0" d="M97,43c-0.6,0-1-0.4-1-1V13c0-0.6,0.4-1,1-1h3c0.6,0,1,0.4,1,1v29c0,0.6-0.4,1-1,1H97z"/>
	<path d="M100,7h-3c-3.3,0-6,2.7-6,6v29c0,3.3,2.7,6,6,6h3c3.3,0,6-2.7,6-6V13C106,9.7,103.3,7,100,7L100,7z"/>
</g>
<g>
	<path class="st0" d="M159.4,162.5c-0.2,0-0.5-0.1-0.7-0.3l-20.5-20.5c-0.4-0.4-0.4-1,0-1.4l2.1-2.1c0.2-0.2,0.5-0.3,0.7-0.3
		c0.2,0,0.5,0.1,0.7,0.3l20.5,20.5c0.2,0.2,0.3,0.5,0.3,0.7c0,0.2-0.1,0.5-0.3,0.7l-2.1,2.1C159.9,162.5,159.6,162.5,159.4,162.5z"
		/>
	<path d="M141,132.9c-1.5,0-3.1,0.6-4.2,1.8l-2.1,2.1c-2.3,2.3-2.3,6.1,0,8.5l20.5,20.5c1.2,1.2,2.7,1.8,4.2,1.8
		c1.5,0,3.1-0.6,4.2-1.8l2.1-2.1c2.3-2.3,2.3-6.1,0-8.5l-20.5-20.5C144.1,133.5,142.6,132.9,141,132.9L141,132.9z"/>
</g>
<g>
	<path class="st0" d="M56.9,61.4c-0.2,0-0.5-0.1-0.7-0.3L35.7,40.6c-0.4-0.4-0.4-1,0-1.4l2.1-2.1c0.2-0.2,0.5-0.3,0.7-0.3
		s0.5,0.1,0.7,0.3l20.5,20.5c0.4,0.4,0.4,1,0,1.4l-2.1,2.1C57.4,61.4,57.1,61.4,56.9,61.4z"/>
	<path d="M38.5,31.8c-1.5,0-3.1,0.6-4.2,1.8l-2.1,2.1c-2.3,2.3-2.3,6.1,0,8.5l20.5,20.5c1.2,1.2,2.7,1.8,4.2,1.8s3.1-0.6,4.2-1.8
		l2.1-2.1c2.3-2.3,2.3-6.1,0-8.5L42.7,33.6C41.6,32.4,40,31.8,38.5,31.8L38.5,31.8z"/>
</g>
<g>
	<path class="st0" d="M139.6,62.1c-0.2,0-0.5-0.1-0.7-0.3l-2.1-2.1c-0.2-0.2-0.3-0.5-0.3-0.7s0.1-0.5,0.3-0.7l20.5-20.5
		c0.2-0.2,0.5-0.3,0.7-0.3c0.2,0,0.5,0.1,0.7,0.3l2.1,2.1c0.2,0.2,0.3,0.5,0.3,0.7s-0.1,0.5-0.3,0.7l-20.5,20.5
		C140.1,62.1,139.8,62.1,139.6,62.1z"/>
	<path d="M158,32.5c-1.5,0-3.1,0.6-4.2,1.8l-20.5,20.5c-2.3,2.3-2.3,6.1,0,8.5l2.1,2.1c1.2,1.2,2.7,1.8,4.2,1.8
		c1.5,0,3.1-0.6,4.2-1.8l20.5-20.5c2.3-2.3,2.3-6.1,0-8.5l-2.1-2.1C161.1,33.1,159.5,32.5,158,32.5L158,32.5z"/>
</g>
<g>
	<path class="st0" d="M37.8,164c-0.2,0-0.5-0.1-0.7-0.3l-2.1-2.1c-0.2-0.2-0.3-0.5-0.3-0.7c0-0.2,0.1-0.5,0.3-0.7l20.5-20.5
		c0.2-0.2,0.5-0.3,0.7-0.3s0.5,0.1,0.7,0.3l2.1,2.1c0.2,0.2,0.3,0.5,0.3,0.7c0,0.2-0.1,0.5-0.3,0.7l-20.5,20.5
		C38.3,163.9,38,164,37.8,164z"/>
	<path d="M56.2,134.3c-1.5,0-3.1,0.6-4.2,1.8l-20.5,20.5c-2.3,2.3-2.3,6.1,0,8.5l2.1,2.1c1.2,1.2,2.7,1.8,4.2,1.8
		c1.5,0,3.1-0.6,4.2-1.8l20.5-20.5c2.3-2.3,2.3-6.1,0-8.5l-2.1-2.1C59.2,134.9,57.7,134.3,56.2,134.3L56.2,134.3z"/>
</g>
</svg>
